# AST/ASF file generated using VICON BodyLanguage
# -----------------------------------------------
:version 1.10
:name VICON
:units
  mass 1.0
  length 0.45
  angle deg
:documentation
   .ast/.asf automatically generated from VICON data using
   VICON BodyBuilder and BodyLanguage model FoxedUp or BRILLIANT.MOD
:root
   order TX TY TZ RX RY RZ
   axis XYZ
   position 0 0 0  
   orientation 0 0 0 
:bonedata
  begin
     id 1 
     name lhipjoint
     direction 0.62366 -0.717238 0.310833 
     length 2.53602 
     axis 0 0 0  XYZ
  end
  begin
     id 2 
     name lfemur
     direction 0.34202 -0.939693 0  
     length 7.40817  
     axis 0 0 20  XYZ
    dof rx ry rz
    limits (-160.0 20.0)
           (-70.0 70.0)
           (-60.0 70.0)
  end
  begin
     id 3 
     name ltibia
     direction 0.34202 -0.939693 0   
     length 7.7045   
     axis 0 0 20   XYZ
    dof rx
    limits (-10.0 170.0)
  end
  begin
     id 4 
     name lfoot
     direction 0.0673888 -0.185149 0.980397   
     length 2.09456   
     axis -90 7.62852e-016 20   XYZ
    dof rx rz
    limits (-45.0 90.0)
           (-70.0 20.0)
  end
  begin
     id 5 
     name ltoes
     direction 1.53575e-011 -4.21994e-011 1   
     length 1.05543   
     axis -90 7.62852e-016 20   XYZ
    dof rx
    limits (-90.0 20.0)
  end
  begin
     id 6 
     name rhipjoint
     direction -0.489018 -0.800347 0.346851   
     length 2.27268  
     axis 0 0 0  XYZ 
  end
  begin
     id 7 
     name rfemur
     direction -0.34202 -0.939693 0   
     length 7.55487   
     axis 0 0 -20   XYZ
    dof rx ry rz
    limits (-160.0 20.0)
           (-70.0 70.0)
           (-70.0 60.0)
  end
  begin
     id 8 
     name rtibia
     direction -0.34202 -0.939693 0   
     length 7.78969   
     axis 0 0 -20   XYZ
    dof rx
    limits (-10.0 170.0)
 end
 begin
     id 9 
     name rfoot
     direction -0.0859318 -0.236096 0.967923   
     length 2.19143  
     axis -90 -7.62852e-016 -20   XYZ
    dof rx rz
    limits (-45.0 90.0)
           (-20.0 70.0)
  end
  begin
     id 10 
     name rtoes
     direction -1.53538e-011 -4.21989e-011 1   
     length 1.09845   
     axis -90 -7.62852e-016 -20   XYZ
    dof rx
    limits (-90.0 20.0)
  end
  begin
     id 11 
     name lowerback
     direction -0.00762546 0.998978 -0.0445553   
     length 1.98161   
     axis 0 0 0   XYZ
    dof rx ry rz
    limits (-20.0 45.0)
           (-30.0 30.0)
           (-30.0 30.0)
  end
  begin
     id 12 
     name upperback
     direction 0.0422361 0.998867 -0.0219156   
     length 1.97558   
     axis 0 0 0   XYZ
    dof rx ry rz
    limits (-20.0 45.0)
           (-30.0 30.0)
           (-30.0 30.0)
  end
  begin
     id 13 
     name thorax
     direction 0.0442465 0.999021 7.47603e-005   
     length 1.97799   
     axis 0 0 0   XYZ
    dof rx ry rz
    limits (-20.0 45.0)
           (-30.0 30.0)
           (-30.0 30.0)
  end
  begin
     id 14 
     name lowerneck
     direction 0.00312169 0.984641 0.174564   
     length 1.78995   
     axis 0 0 0   XYZ
    dof rx ry rz
    limits (-20.0 45.0)
           (-30.0 30.0)
           (-30.0 30.0)
  end
  begin
     id 15 
     name upperneck
     direction -0.0383028 0.985255 -0.166749   
     length 1.83053   
     axis 0 0 0   XYZ
    dof rx ry rz
    limits (-20.0 45.0)
           (-30.0 30.0)
           (-30.0 30.0)
  end
  begin
     id 16
     name head
     direction -0.0129546 0.997059 -0.0755386  
     length 1.84088  
     axis 0 0 0   XYZ
    dof rx ry rz
    limits (-20.0 45.0)
           (-30.0 30.0)
           (-30.0 30.0)
  end
  begin
     id 17 
     name lclavicle
     direction 0.912857 0.370519 -0.171488  
     length 3.51279  
     axis 0 0 0   XYZ
    dof ry rz
    limits (-20.0 10.0)
           (0.0 20.0)
  end
  begin
     id 18 
     name lhumerus
     direction 1 -4.48962e-011 3.64361e-027   
     length 4.95663   
     axis 180 -30 -90   XYZ
    dof rx ry rz
    limits (-60.0 90.0)
           (-90.0 90.0)
           (-90.0 90.0)
  end
  begin
     id 19
     name lradius
     direction 1 -4.48974e-011 5.97202e-027   
     length 3.38177   
     axis 180 -30 -90   XYZ
    dof rx
    limits (-10.0 170.0)
  end
  begin
     id 20
     name lwrist
     direction 1 -4.4896e-011 9.83288e-027   
     length 1.69088   
     axis -9.31221e-015 90 90   XYZ
    dof ry
    limits (-180.0 0.0)
 end
  begin
     id 21 
     name lhand
     direction 1 -4.4902e-011 1.96551e-026   
     length 0.662909   
     axis -1.25475e-014 90 90   XYZ
    dof rx rz
    limits (-90.0 90.0)
           (-45.0 45.0)
  end
  begin
     id 22 
     name lfingers
     direction 1 -4.48971e-011 3.93277e-026   
     length 0.534454   
     axis -2.50945e-014 90 90   XYZ
    dof rx
    limits (0.0 90.0)
  end
  begin
     id 23
     name lthumb
     direction 0.707107 -6.34933e-011 0.707107   
     length 0.767373   
     axis -90 45 -4.80359e-014   XYZ
    dof rx rz
    limits (-45.0 45.0)
           (-45.0 45.0)
  end
  begin
     id 24 
     name rclavicle
     direction -0.900919 0.395364 -0.178976   
     length 3.40627  
     axis 0 0 0   XYZ 
    dof ry rz
    limits (-10.0 20.0)
           (-20.0 0.0)
  end
  begin
     id 25 
     name rhumerus
     direction -1 -4.48969e-011 1.03875e-027  
     length 5.08365   
     axis 180 30 90   XYZ
    dof rx ry rz
    limits (-90.0 60.0)
           (-90.0 90.0)
           (-90.0 90.0)
  end
  begin
     id 26 
     name rradius
     direction -1 -4.48951e-011 5.02733e-027   
     length 3.35984   
     axis 180 30 90   XYZ
    dof rx
    limits (-10.0 170.0)
  end
  begin
     id 27 
     name rwrist
     direction -1 -4.49011e-011 9.82828e-027   
     length 1.67992   
     axis -9.31221e-015 -90 -90   XYZ
    dof ry
    limits (-180.0 0.0)
  end
  begin
     id 28
     name rhand
     direction -1 -4.48894e-011 1.96774e-026   
     length 0.820764   
     axis -1.25475e-014 -90 -90   XYZ
    dof rx rz
    limits (-90.0 90.0)
           (-45.0 45.0)
  end
  begin
     id 29
     name rfingers
     direction -1 -4.49095e-011 3.92833e-026   
     length 0.661721   
     axis -2.50945e-014 -90 -90   XYZ
    dof rx
    limits (0.0 90.0)
  end
  begin
     id 30
     name rthumb
     direction -0.707107 -6.34881e-011 0.707107   
     length 0.950103   
     axis -90 -45 4.80359e-014   XYZ
    dof rx rz
    limits (-45.0 45.0)
           (-45.0 45.0)
  end
:hierarchy
  begin
    root lhipjoint rhipjoint lowerback
    lhipjoint lfemur
    lfemur ltibia
    ltibia lfoot
    lfoot ltoes
    rhipjoint rfemur
    rfemur rtibia
    rtibia rfoot
    rfoot rtoes
    lowerback upperback
    upperback thorax
    thorax lowerneck lclavicle rclavicle
    lowerneck upperneck
    upperneck head
    lclavicle lhumerus
    lhumerus lradius
    lradius lwrist
    lwrist lhand lthumb
    lhand lfingers
    rclavicle rhumerus
    rhumerus rradius
    rradius rwrist
    rwrist rhand rthumb
    rhand rfingers
  end

#!OML:ASF I:\golf\golf\golf 2\Subject 1\2002-09-07\Subject1.ASF
:FULLY-SPECIFIED
:DEGREES
1
root -6.66662 17.6864 -0.617211 -91.4661 86.8959 -105.978
lowerback 4.13417 2.60872 -1.50616
upperback 4.13668 3.54533 4.51481
thorax 1.57445 1.74626 5.41481
lowerneck -15.006 -2.44263 1.18932
upperneck 39.2748 -0.0159358 -5.16779
head 16.6981 0.0493249 -2.3428
rclavicle 1.27222e-014 2.54444e-014
rhumerus -5.98658 -3.06774 -101.438
rradius 22.559
rwrist -44.3939
rhand -13.6533 -5.94192
rfingers 7.12502
rthumb 12.4634 -35.5503
lclavicle 1.27222e-014 2.54444e-014
lhumerus -10.23 -46.9803 110.804
lradius 25.278
lwrist 34.9301
lhand -14.4166 72.527
lfingers 7.12502
lthumb -168.273 77.8213
rfemur -30.6085 -4.4762 13.2302
rtibia 33.2224
rfoot -10.7347 -6.26384
rtoes 8.71567
lfemur -30.5306 7.70409 -10.4038
ltibia 33.1558
lfoot -13.2886 -3.44169
ltoes -18.7556
2
root -6.66614 17.6862 -0.618749 -92.0029 86.9128 -106.51
lowerback 4.14237 2.60353 -1.51159
upperback 4.13224 3.53825 4.51032
thorax 1.56596 1.74277 5.41284
lowerneck -15.0011 -2.45911 1.17429
upperneck 39.2738 -0.0412569 -5.15539
head 16.6951 0.038453 -2.33888
rclavicle -3.29983e-014 -8.5875e-014
rhumerus -5.90986 -3.6793 -101.566
rradius 22.3661
rwrist -43.7232
rhand -13.6826 -5.87744
rfingers 7.12502
rthumb 12.4351 -35.4875
lclavicle -3.29983e-014 -8.5875e-014
lhumerus -10.2767 -47.0538 110.826
lradius 25.3075
lwrist 35.0226
lhand -13.8199 72.1955
lfingers 7.12502
lthumb -167.697 78.1864
rfemur -30.5927 -4.47592 13.1842
rtibia 33.2347
rfoot -10.7887 -6.20641
rtoes 9.67418
lfemur -30.5292 7.69069 -10.4346
ltibia 33.1426
lfoot -13.2649 -3.43943
ltoes -18.7062
3
root -6.66631 17.6855 -0.621669 -92.8397 86.9172 -107.331
lowerback 4.169 2.60081 -1.49687
upperback 4.13134 3.53567 4.52023
thorax 1.55068 1.74225 5.41357
lowerneck -14.9732 -2.4648 1.14407
upperneck 39.2505 -0.0526451 -5.12827
head 16.6752 0.0329586 -2.3219
rclavicle -6.36111e-015 -1.98785e-014
rhumerus -5.78194 -4.4424 -101.695
rradius 22.1015
rwrist -42.9166
rhand -13.4033 -5.91375
rfingers 7.12502
rthumb 12.7044 -35.5073
lclavicle -6.36111e-015 -1.98785e-014
lhumerus -10.259 -47.0441 110.847
lradius 25.2908
lwrist 34.9241
lhand -13.7607 72.2539
lfingers 7.12502
lthumb -167.64 78.1315
rfemur -30.5774 -4.62318 13.2074
rtibia 33.2244
rfoot -10.7018 -6.22204
rtoes 9.29217
lfemur -30.5378 7.67759 -10.4622
ltibia 33.1644
lfoot -13.2602 -3.45735
ltoes -18.6773
4
root -6.66649 17.6852 -0.624585 -93.6741 86.8906 -108.137
lowerback 4.20803 2.57973 -1.51932
upperback 4.1394 3.50918 4.58652
thorax 1.53501 1.72896 5.49529
lowerneck -14.9719 -2.44564 1.13197
upperneck 39.243 0.00385522 -5.18443
head 16.6743 0.046983 -2.33443
rclavicle 4.49253e-014 4.69132e-014
rhumerus -5.74286 -4.68001 -101.709
rradius 21.9996
rwrist -42.6121
rhand -13.2227 -5.96077
rfingers 7.12502
rthumb 12.8785 -35.5434
lclavicle 4.49253e-014 4.69132e-014
lhumerus -10.1739 -46.9308 110.844
lradius 25.2649
lwrist 34.8476
lhand -13.5387 72.2709
lfingers 7.12502
lthumb -167.426 78.1275
rfemur -30.549 -4.77183 13.2717
rtibia 33.2173
rfoot -10.8068 -7.00975
rtoes -10.4312
lfemur -30.5218 7.66942 -10.4546
ltibia 33.1718
lfoot -13.2669 -3.53972
ltoes -18.5393
5
root -6.66647 17.6868 -0.625553 -94.0656 86.8579 -108.512
lowerback 4.24179 2.5871 -1.53567
upperback 4.13552 3.52016 4.6314
thorax 1.50751 1.73485 5.54938
lowerneck -15.0056 -2.45481 1.15149
upperneck 39.2889 0.0103102 -5.23245
head 16.7079 0.0477744 -2.36025
rclavicle -2.8625e-014 -2.06736e-014
rhumerus -5.68165 -5.0439 -101.705
rradius 21.8459
rwrist -42.1932
rhand -13.2379 -5.90939
rfingers 7.12502
rthumb 12.8639 -35.493
lclavicle -2.8625e-014 -2.06736e-014
lhumerus -10.1576 -46.8345 110.874
lradius 25.2177
lwrist 34.7629
lhand -13.3948 71.998
lfingers 7.12502
lthumb -167.287 78.4089
rfemur -30.5184 -4.77024 13.3036
rtibia 33.2142
rfoot -10.7383 -7.07194
rtoes -11.3324
lfemur -30.508 7.64769 -10.423
ltibia 33.1792
lfoot -13.2617 -3.57813
ltoes -18.4316
6
root -6.66681 17.6871 -0.625207 -94.1652 86.8626 -108.625
lowerback 4.23588 2.63126 -1.5322
upperback 4.12908 3.5787 4.61443
thorax 1.49903 1.76446 5.52721
lowerneck -15.029 -2.49587 1.16391
upperneck 39.3183 -0.0722537 -5.18413
head 16.7245 0.0234334 -2.35676
rclavicle -1.03368e-014 7.95139e-016
rhumerus -5.57554 -5.44862 -101.719
rradius 21.6884
rwrist -41.8622
rhand -13.2464 -5.89461
rfingers 7.12502
rthumb 12.8557 -35.4787
lclavicle -1.03368e-014 7.95139e-016
lhumerus -10.1747 -46.8052 110.904
lradius 25.1567
lwrist 34.5584
lhand -13.3266 71.7062
lfingers 7.12502
lthumb -167.222 78.7048
rfemur -30.526 -4.71813 13.2853
rtibia 33.2094
rfoot -10.5254 -6.51448
rtoes 4.82125
lfemur -30.526 7.6362 -10.4225
ltibia 33.1837
lfoot -13.2719 -3.57154
ltoes -18.4208
7
root -6.6668 17.6848 -0.626043 -94.6267 86.9056 -109.102
lowerback 4.20921 2.64971 -1.55432
upperback 4.13336 3.60162 4.58664
thorax 1.51629 1.77494 5.5112
lowerneck -15.0064 -2.50754 1.16979
upperneck 39.2866 -0.119594 -5.12788
head 16.6988 0.0118072 -2.33952
rclavicle 9.14409e-015 -3.89618e-014
rhumerus -5.57941 -5.22803 -101.694
rradius 21.7761
rwrist -42.1679
rhand -13.2541 -6.07702
rfingers 7.12502
rthumb 12.8482 -35.6616
lclavicle 9.14409e-015 -3.89618e-014
lhumerus -10.1652 -46.7736 110.879
lradius 25.1407
lwrist 34.3474
lhand -13.628 71.6284
lfingers 7.12502
lthumb -167.512 78.7647
rfemur -30.5449 -4.73134 13.2325
rtibia 33.208
rfoot -10.7654 -7.1723
rtoes -10.8836
lfemur -30.5571 7.66077 -10.4923
ltibia 33.1839
lfoot -13.3312 -3.55994
ltoes -18.7246
8
root -6.66572 17.6849 -0.628401 -95.4434 86.9086 -109.912
lowerback 4.20684 2.63389 -1.54592
upperback 4.13575 3.58084 4.58784
thorax 1.52271 1.76461 5.50877
lowerneck -14.9872 -2.48968 1.18227
upperneck 39.2718 -0.0962866 -5.13116
head 16.6871 0.0227511 -2.33819
rclavicle -2.06736e-014 -3.97569e-015
rhumerus -5.61626 -5.07303 -101.682
rradius 21.853
rwrist -42.3312
rhand -13.191 -6.25458
rfingers 7.12502
rthumb 12.9091 -35.8353
lclavicle -2.06736e-014 -3.97569e-015
lhumerus -10.1799 -46.8201 110.858
lradius 25.1823
lwrist 34.3599
lhand -14.2166 71.7224
lfingers 7.12502
lthumb -168.08 78.6369
rfemur -30.5301 -4.78925 13.2237
rtibia 33.2087
rfoot -10.9714 -7.3377
rtoes -14.503
lfemur -30.5707 7.68231 -10.5314
ltibia 33.1903
lfoot -13.3461 -3.64385
ltoes -18.673
9
root -6.66494 17.6868 -0.631764 -96.3896 86.8836 -110.853
lowerback 4.23691 2.60233 -1.51731
upperback 4.11912 3.54045 4.60625
thorax 1.49351 1.7458 5.5113
lowerneck -14.9924 -2.47157 1.1842
upperneck 39.3039 -0.0545531 -5.15323
head 16.7082 0.0385362 -2.34208
rclavicle 8.18993e-014 3.65764e-014
rhumerus -5.61816 -5.29664 -101.703
rradius 21.7633
rwrist -42.1145
rhand -13.1109 -6.21659
rfingers 7.12502
rthumb 12.9863 -35.7924
lclavicle 8.18993e-014 3.65764e-014
lhumerus -10.2097 -46.905 110.851
lradius 25.2301
lwrist 34.4509
lhand -14.389 72.0814
lfingers 7.12502
lthumb -168.246 78.2684
rfemur -30.512 -4.90117 13.2469
rtibia 33.2041
rfoot -11.0429 -7.27018
rtoes -13.9302
lfemur -30.5822 7.65474 -10.5272
ltibia 33.2003
lfoot -13.3114 -3.74791
ltoes -18.3277
